<mxfile host="65bd71144e" modified="2021-02-22T02:29:12.127Z" agent="5.0 (Macintosh; Intel Mac OS X 10_15_7) AppleWebKit/537.36 (KHTML, like Gecko) Code/1.53.2 Chrome/87.0.4280.141 Electron/11.2.1 Safari/537.36" etag="hoyXkTe2h2CaPtVo8fd2" version="14.2.4" type="embed">
    <diagram id="awrVuAoCNWXj-BxwwY8W" name="Page-1">
        <mxGraphModel dx="724" dy="590" grid="0" gridSize="10" guides="1" tooltips="1" connect="1" arrows="1" fold="1" page="1" pageScale="1" pageWidth="850" pageHeight="1100" math="0" shadow="0">
            <root>
                <mxCell id="0"/>
                <mxCell id="1" parent="0"/>
                <mxCell id="FX2rXBRW-lGvqEh_019G-1" value="Commodify Entity Relationship Diagram" style="text;html=1;strokeColor=none;fillColor=none;align=center;verticalAlign=middle;whiteSpace=wrap;rounded=0;fontStyle=1;fontSize=15;" parent="1" vertex="1">
                    <mxGeometry x="653" y="155" width="350.5" height="20" as="geometry"/>
                </mxCell>
                <mxCell id="FX2rXBRW-lGvqEh_019G-6" value="&lt;u&gt;year&lt;/u&gt;" style="ellipse;whiteSpace=wrap;html=1;" parent="1" vertex="1">
                    <mxGeometry x="942" y="578" width="49" height="32.5" as="geometry"/>
                </mxCell>
                <mxCell id="FX2rXBRW-lGvqEh_019G-7" value="&lt;u&gt;Commodity_Code&lt;/u&gt;" style="ellipse;whiteSpace=wrap;html=1;" parent="1" vertex="1">
                    <mxGeometry x="784" y="584.5" width="146" height="57" as="geometry"/>
                </mxCell>
                <mxCell id="FX2rXBRW-lGvqEh_019G-8" value="beginning_stocks" style="ellipse;whiteSpace=wrap;html=1;" parent="1" vertex="1">
                    <mxGeometry x="1229.37" y="291" width="107" height="57" as="geometry"/>
                </mxCell>
                <mxCell id="FX2rXBRW-lGvqEh_019G-9" value="imports" style="ellipse;whiteSpace=wrap;html=1;" parent="1" vertex="1">
                    <mxGeometry x="1237.37" y="401" width="86" height="44" as="geometry"/>
                </mxCell>
                <mxCell id="FX2rXBRW-lGvqEh_019G-10" value="production" style="ellipse;whiteSpace=wrap;html=1;" parent="1" vertex="1">
                    <mxGeometry x="1237.38" y="352" width="86" height="44" as="geometry"/>
                </mxCell>
                <mxCell id="FX2rXBRW-lGvqEh_019G-11" value="exports" style="ellipse;whiteSpace=wrap;html=1;" parent="1" vertex="1">
                    <mxGeometry x="1239.87" y="449" width="86" height="41" as="geometry"/>
                </mxCell>
                <mxCell id="FX2rXBRW-lGvqEh_019G-12" value="" style="endArrow=none;html=1;entryX=0.5;entryY=1;entryDx=0;entryDy=0;" parent="1" source="FX2rXBRW-lGvqEh_019G-6" target="FX2rXBRW-lGvqEh_019G-5" edge="1">
                    <mxGeometry width="50" height="50" relative="1" as="geometry">
                        <mxPoint x="974" y="663" as="sourcePoint"/>
                        <mxPoint x="1024" y="613" as="targetPoint"/>
                    </mxGeometry>
                </mxCell>
                <mxCell id="FX2rXBRW-lGvqEh_019G-13" value="" style="endArrow=none;html=1;exitX=0.5;exitY=0;exitDx=0;exitDy=0;entryX=0.297;entryY=0.981;entryDx=0;entryDy=0;entryPerimeter=0;" parent="1" source="FX2rXBRW-lGvqEh_019G-7" target="FX2rXBRW-lGvqEh_019G-5" edge="1">
                    <mxGeometry width="50" height="50" relative="1" as="geometry">
                        <mxPoint x="897" y="455" as="sourcePoint"/>
                        <mxPoint x="978" y="523" as="targetPoint"/>
                    </mxGeometry>
                </mxCell>
                <mxCell id="FX2rXBRW-lGvqEh_019G-14" value="" style="endArrow=none;html=1;exitX=0;exitY=1;exitDx=0;exitDy=0;entryX=1;entryY=0;entryDx=0;entryDy=0;" parent="1" source="FX2rXBRW-lGvqEh_019G-8" target="FX2rXBRW-lGvqEh_019G-5" edge="1">
                    <mxGeometry width="50" height="50" relative="1" as="geometry">
                        <mxPoint x="906" y="443" as="sourcePoint"/>
                        <mxPoint x="1109" y="354" as="targetPoint"/>
                    </mxGeometry>
                </mxCell>
                <mxCell id="FX2rXBRW-lGvqEh_019G-15" value="" style="endArrow=none;html=1;fontSize=15;exitX=1;exitY=0;exitDx=0;exitDy=0;entryX=0;entryY=1;entryDx=0;entryDy=0;" parent="1" source="FX2rXBRW-lGvqEh_019G-5" target="FX2rXBRW-lGvqEh_019G-10" edge="1">
                    <mxGeometry width="50" height="50" relative="1" as="geometry">
                        <mxPoint x="975" y="650" as="sourcePoint"/>
                        <mxPoint x="1025" y="600" as="targetPoint"/>
                    </mxGeometry>
                </mxCell>
                <mxCell id="FX2rXBRW-lGvqEh_019G-16" value="" style="endArrow=none;html=1;fontSize=15;exitX=1;exitY=0.5;exitDx=0;exitDy=0;entryX=0;entryY=0.5;entryDx=0;entryDy=0;" parent="1" source="FX2rXBRW-lGvqEh_019G-5" target="FX2rXBRW-lGvqEh_019G-9" edge="1">
                    <mxGeometry width="50" height="50" relative="1" as="geometry">
                        <mxPoint x="975" y="650" as="sourcePoint"/>
                        <mxPoint x="1149" y="492" as="targetPoint"/>
                    </mxGeometry>
                </mxCell>
                <mxCell id="FX2rXBRW-lGvqEh_019G-17" value="" style="endArrow=none;html=1;fontSize=15;entryX=1;entryY=0.75;entryDx=0;entryDy=0;exitX=0;exitY=0;exitDx=0;exitDy=0;" parent="1" source="FX2rXBRW-lGvqEh_019G-11" target="FX2rXBRW-lGvqEh_019G-5" edge="1">
                    <mxGeometry width="50" height="50" relative="1" as="geometry">
                        <mxPoint x="1135" y="596" as="sourcePoint"/>
                        <mxPoint x="1025" y="600" as="targetPoint"/>
                    </mxGeometry>
                </mxCell>
                <mxCell id="FX2rXBRW-lGvqEh_019G-19" value="acreage" style="ellipse;whiteSpace=wrap;html=1;" parent="1" vertex="1">
                    <mxGeometry x="977" y="344" width="86" height="57" as="geometry"/>
                </mxCell>
                <mxCell id="FX2rXBRW-lGvqEh_019G-20" value="" style="endArrow=none;html=1;fontSize=15;exitX=0.25;exitY=0;exitDx=0;exitDy=0;entryX=0.5;entryY=1;entryDx=0;entryDy=0;" parent="1" source="FX2rXBRW-lGvqEh_019G-5" target="FX2rXBRW-lGvqEh_019G-19" edge="1">
                    <mxGeometry width="50" height="50" relative="1" as="geometry">
                        <mxPoint x="965" y="521" as="sourcePoint"/>
                        <mxPoint x="1015" y="471" as="targetPoint"/>
                    </mxGeometry>
                </mxCell>
                <mxCell id="FX2rXBRW-lGvqEh_019G-23" value="1..1" style="text;html=1;strokeColor=none;fillColor=none;align=center;verticalAlign=middle;whiteSpace=wrap;rounded=0;fontSize=15;" parent="1" vertex="1">
                    <mxGeometry x="725" y="508" width="40" height="18" as="geometry"/>
                </mxCell>
                <mxCell id="n6RVcKBgCD9liKFhx9LF-6" value="ending stocks are beginning stocks + production&amp;nbsp; + imports - exports - domestic consumption" style="text;html=1;strokeColor=none;fillColor=none;align=center;verticalAlign=middle;whiteSpace=wrap;rounded=0;fontSize=15;" parent="1" vertex="1">
                    <mxGeometry x="890" y="625" width="144" height="123" as="geometry"/>
                </mxCell>
                <mxCell id="n6RVcKBgCD9liKFhx9LF-8" value="yield" style="ellipse;whiteSpace=wrap;html=1;" parent="1" vertex="1">
                    <mxGeometry x="1103" y="306" width="86" height="57" as="geometry"/>
                </mxCell>
                <mxCell id="n6RVcKBgCD9liKFhx9LF-9" value="" style="endArrow=none;html=1;fontSize=15;exitX=0.75;exitY=0;exitDx=0;exitDy=0;" parent="1" source="FX2rXBRW-lGvqEh_019G-5" target="n6RVcKBgCD9liKFhx9LF-8" edge="1">
                    <mxGeometry width="50" height="50" relative="1" as="geometry">
                        <mxPoint x="1349" y="325" as="sourcePoint"/>
                        <mxPoint x="1252" y="367" as="targetPoint"/>
                    </mxGeometry>
                </mxCell>
                <mxCell id="n6RVcKBgCD9liKFhx9LF-11" value="production = acreage * yield" style="text;html=1;strokeColor=none;fillColor=none;align=center;verticalAlign=middle;whiteSpace=wrap;rounded=0;fontSize=15;" parent="1" vertex="1">
                    <mxGeometry x="1098" y="225" width="113" height="75" as="geometry"/>
                </mxCell>
                <mxCell id="n6RVcKBgCD9liKFhx9LF-13" value="beginning_stocks, production, imports, domestic_consumption and exports are sum of those for countries" style="text;html=1;strokeColor=none;fillColor=none;align=center;verticalAlign=middle;whiteSpace=wrap;rounded=0;fontSize=15;" parent="1" vertex="1">
                    <mxGeometry x="1356" y="401" width="148" height="129" as="geometry"/>
                </mxCell>
                <mxCell id="n6RVcKBgCD9liKFhx9LF-16" value="ending_stocks" style="ellipse;whiteSpace=wrap;html=1;" parent="1" vertex="1">
                    <mxGeometry x="1235.9899999999998" y="565" width="93.75" height="50" as="geometry"/>
                </mxCell>
                <mxCell id="n6RVcKBgCD9liKFhx9LF-17" value="" style="endArrow=none;html=1;fontSize=15;exitX=0;exitY=0;exitDx=0;exitDy=0;entryX=0.883;entryY=1;entryDx=0;entryDy=0;entryPerimeter=0;" parent="1" source="n6RVcKBgCD9liKFhx9LF-16" target="FX2rXBRW-lGvqEh_019G-5" edge="1">
                    <mxGeometry width="50" height="50" relative="1" as="geometry">
                        <mxPoint x="975" y="348" as="sourcePoint"/>
                        <mxPoint x="1094" y="565" as="targetPoint"/>
                    </mxGeometry>
                </mxCell>
                <mxCell id="0lMx6nH-BZG6Sv3tBxdw-55" value="" style="edgeStyle=orthogonalEdgeStyle;rounded=0;orthogonalLoop=1;jettySize=auto;html=1;endArrow=none;endFill=0;" parent="1" source="0lMx6nH-BZG6Sv3tBxdw-47" target="0lMx6nH-BZG6Sv3tBxdw-54" edge="1">
                    <mxGeometry relative="1" as="geometry"/>
                </mxCell>
                <mxCell id="0lMx6nH-BZG6Sv3tBxdw-68" style="edgeStyle=orthogonalEdgeStyle;rounded=0;orthogonalLoop=1;jettySize=auto;html=1;exitX=1;exitY=0.5;exitDx=0;exitDy=0;entryX=0;entryY=0;entryDx=0;entryDy=0;entryPerimeter=0;endArrow=none;endFill=0;" parent="1" source="0lMx6nH-BZG6Sv3tBxdw-47" target="0lMx6nH-BZG6Sv3tBxdw-66" edge="1">
                    <mxGeometry relative="1" as="geometry"/>
                </mxCell>
                <mxCell id="0lMx6nH-BZG6Sv3tBxdw-47" value="Political_Entity" style="rounded=0;whiteSpace=wrap;html=1;" parent="1" vertex="1">
                    <mxGeometry x="376.25" y="530" width="128" height="52" as="geometry"/>
                </mxCell>
                <mxCell id="0lMx6nH-BZG6Sv3tBxdw-54" value="&lt;u&gt;name&lt;/u&gt;" style="ellipse;whiteSpace=wrap;html=1;" parent="1" vertex="1">
                    <mxGeometry x="207" y="527.5" width="86" height="57" as="geometry"/>
                </mxCell>
                <mxCell id="0lMx6nH-BZG6Sv3tBxdw-65" value="" style="group" parent="1" vertex="1" connectable="0">
                    <mxGeometry x="634.9981189203827" y="460.3331189203828" width="81.66376215923447" height="81.66376215923435" as="geometry"/>
                </mxCell>
                <mxCell id="0lMx6nH-BZG6Sv3tBxdw-66" value="" style="verticalLabelPosition=bottom;verticalAlign=top;html=1;shape=mxgraph.basic.frame;dx=10;rotation=-45;" parent="0lMx6nH-BZG6Sv3tBxdw-65" vertex="1">
                    <mxGeometry x="11.411881079617274" y="12.506881079617187" width="58.84" height="56.65" as="geometry"/>
                </mxCell>
                <mxCell id="0lMx6nH-BZG6Sv3tBxdw-67" value="Produces" style="text;html=1;align=center;verticalAlign=middle;resizable=0;points=[];autosize=1;" parent="0lMx6nH-BZG6Sv3tBxdw-65" vertex="1">
                    <mxGeometry x="10.831881079617233" y="31.826881079617124" width="61" height="18" as="geometry"/>
                </mxCell>
                <mxCell id="0lMx6nH-BZG6Sv3tBxdw-71" value="" style="shape=link;html=1;rounded=0;endArrow=none;endFill=0;strokeColor=#000000;entryX=0;entryY=0.5;entryDx=0;entryDy=0;exitX=1;exitY=1;exitDx=0;exitDy=0;exitPerimeter=0;" parent="1" source="0lMx6nH-BZG6Sv3tBxdw-66" target="FX2rXBRW-lGvqEh_019G-5" edge="1">
                    <mxGeometry relative="1" as="geometry">
                        <mxPoint x="615.6618810796167" y="953.060718074601" as="sourcePoint"/>
                        <mxPoint x="652" y="944.5" as="targetPoint"/>
                    </mxGeometry>
                </mxCell>
                <mxCell id="0lMx6nH-BZG6Sv3tBxdw-72" value="0..*" style="text;html=1;strokeColor=none;fillColor=none;align=center;verticalAlign=middle;whiteSpace=wrap;rounded=0;fontSize=15;" parent="1" vertex="1">
                    <mxGeometry x="515" y="564.5" width="40" height="20" as="geometry"/>
                </mxCell>
                <mxCell id="0lMx6nH-BZG6Sv3tBxdw-76" value="Domestic_consumption" style="ellipse;whiteSpace=wrap;html=1;" parent="1" vertex="1">
                    <mxGeometry x="1209" y="498" width="142.76" height="57" as="geometry"/>
                </mxCell>
                <mxCell id="0lMx6nH-BZG6Sv3tBxdw-77" value="" style="endArrow=none;html=1;fontSize=15;exitX=0;exitY=0;exitDx=0;exitDy=0;entryX=1;entryY=1;entryDx=0;entryDy=0;" parent="1" source="0lMx6nH-BZG6Sv3tBxdw-76" target="FX2rXBRW-lGvqEh_019G-5" edge="1">
                    <mxGeometry width="50" height="50" relative="1" as="geometry">
                        <mxPoint x="980.98" y="294" as="sourcePoint"/>
                        <mxPoint x="1066.0040000000004" y="464" as="targetPoint"/>
                    </mxGeometry>
                </mxCell>
                <mxCell id="0lMx6nH-BZG6Sv3tBxdw-98" value="" style="group" parent="1" vertex="1" connectable="0">
                    <mxGeometry x="947" y="466" width="128" height="70" as="geometry"/>
                </mxCell>
                <mxCell id="FX2rXBRW-lGvqEh_019G-5" value="" style="rounded=0;whiteSpace=wrap;html=1;fillColor=none;" parent="0lMx6nH-BZG6Sv3tBxdw-98" vertex="1">
                    <mxGeometry width="128" height="70" as="geometry"/>
                </mxCell>
                <mxCell id="0lMx6nH-BZG6Sv3tBxdw-97" value="Commodity" style="rounded=0;whiteSpace=wrap;html=1;" parent="0lMx6nH-BZG6Sv3tBxdw-98" vertex="1">
                    <mxGeometry x="11" y="9" width="106" height="51" as="geometry"/>
                </mxCell>
                <mxCell id="0lMx6nH-BZG6Sv3tBxdw-127" value="" style="shape=link;html=1;rounded=0;endArrow=none;endFill=0;strokeColor=#000000;entryX=0;entryY=0.5;entryDx=0;entryDy=0;exitX=1;exitY=1;exitDx=0;exitDy=0;exitPerimeter=0;" parent="1" source="0lMx6nH-BZG6Sv3tBxdw-133" target="0lMx6nH-BZG6Sv3tBxdw-129" edge="1">
                    <mxGeometry relative="1" as="geometry">
                        <mxPoint x="794.44" y="839" as="sourcePoint"/>
                        <mxPoint x="788.6918810796174" y="781.5707180746008" as="targetPoint"/>
                    </mxGeometry>
                </mxCell>
                <mxCell id="0lMx6nH-BZG6Sv3tBxdw-128" value="" style="group;rotation=90;" parent="1" vertex="1" connectable="0">
                    <mxGeometry x="703" y="815.67" width="100" height="65" as="geometry"/>
                </mxCell>
                <mxCell id="0lMx6nH-BZG6Sv3tBxdw-129" value="" style="rounded=0;whiteSpace=wrap;html=1;" parent="0lMx6nH-BZG6Sv3tBxdw-128" vertex="1">
                    <mxGeometry width="100" height="65" as="geometry"/>
                </mxCell>
                <mxCell id="0lMx6nH-BZG6Sv3tBxdw-130" value="Oil" style="whiteSpace=wrap;html=1;fillColor=#2a2a2a;" parent="0lMx6nH-BZG6Sv3tBxdw-128" vertex="1">
                    <mxGeometry x="6.5" y="7.500000000000114" width="87" height="50" as="geometry"/>
                </mxCell>
                <mxCell id="0lMx6nH-BZG6Sv3tBxdw-131" value="1..1" style="text;html=1;strokeColor=none;fillColor=none;align=center;verticalAlign=middle;whiteSpace=wrap;rounded=0;fontSize=15;" parent="1" vertex="1">
                    <mxGeometry x="657" y="780" width="40" height="20" as="geometry"/>
                </mxCell>
                <mxCell id="0lMx6nH-BZG6Sv3tBxdw-132" value="" style="group" parent="1" vertex="1" connectable="0">
                    <mxGeometry x="530.9981189203827" y="678.0031189203828" width="81.66376215923447" height="81.66376215923435" as="geometry"/>
                </mxCell>
                <mxCell id="0lMx6nH-BZG6Sv3tBxdw-133" value="" style="verticalLabelPosition=bottom;verticalAlign=top;html=1;shape=mxgraph.basic.frame;dx=10;rotation=-45;" parent="0lMx6nH-BZG6Sv3tBxdw-132" vertex="1">
                    <mxGeometry x="11.411881079617274" y="12.506881079617187" width="58.84" height="56.65" as="geometry"/>
                </mxCell>
                <mxCell id="0lMx6nH-BZG6Sv3tBxdw-134" value="Produces" style="text;html=1;align=center;verticalAlign=middle;resizable=0;points=[];autosize=1;" parent="0lMx6nH-BZG6Sv3tBxdw-132" vertex="1">
                    <mxGeometry x="10.831881079617233" y="31.826881079617124" width="61" height="18" as="geometry"/>
                </mxCell>
                <mxCell id="0lMx6nH-BZG6Sv3tBxdw-135" value="0..1" style="text;html=1;strokeColor=none;fillColor=none;align=center;verticalAlign=middle;whiteSpace=wrap;rounded=0;fontSize=15;" parent="1" vertex="1">
                    <mxGeometry x="484.00000000000006" y="639" width="40" height="20" as="geometry"/>
                </mxCell>
                <mxCell id="0lMx6nH-BZG6Sv3tBxdw-136" style="edgeStyle=orthogonalEdgeStyle;rounded=0;orthogonalLoop=1;jettySize=auto;html=1;exitX=0;exitY=0;exitDx=0;exitDy=0;exitPerimeter=0;endArrow=none;endFill=0;entryX=0.75;entryY=1;entryDx=0;entryDy=0;" parent="1" source="0lMx6nH-BZG6Sv3tBxdw-133" target="0lMx6nH-BZG6Sv3tBxdw-47" edge="1">
                    <mxGeometry relative="1" as="geometry">
                        <mxPoint x="504.25" y="878" as="targetPoint"/>
                    </mxGeometry>
                </mxCell>
                <mxCell id="0lMx6nH-BZG6Sv3tBxdw-139" value="Production" style="ellipse;whiteSpace=wrap;html=1;fillColor=#2a2a2a;" parent="1" vertex="1">
                    <mxGeometry x="863.26" y="800" width="97.74" height="50.5" as="geometry"/>
                </mxCell>
                <mxCell id="0lMx6nH-BZG6Sv3tBxdw-141" value="&lt;u&gt;Year&lt;/u&gt;" style="ellipse;whiteSpace=wrap;html=1;" parent="1" vertex="1">
                    <mxGeometry x="867" y="858" width="86" height="39" as="geometry"/>
                </mxCell>
                <mxCell id="0lMx6nH-BZG6Sv3tBxdw-142" style="edgeStyle=orthogonalEdgeStyle;rounded=0;orthogonalLoop=1;jettySize=auto;html=1;exitX=1;exitY=0.5;exitDx=0;exitDy=0;entryX=0;entryY=0.5;entryDx=0;entryDy=0;endArrow=none;endFill=0;" parent="1" source="0lMx6nH-BZG6Sv3tBxdw-129" target="0lMx6nH-BZG6Sv3tBxdw-141" edge="1">
                    <mxGeometry relative="1" as="geometry">
                        <mxPoint x="817.2500000000005" y="882.7499999999998" as="sourcePoint"/>
                        <Array as="points">
                            <mxPoint x="852" y="848"/>
                            <mxPoint x="852" y="877"/>
                        </Array>
                    </mxGeometry>
                </mxCell>
                <mxCell id="0lMx6nH-BZG6Sv3tBxdw-148" style="edgeStyle=orthogonalEdgeStyle;rounded=0;orthogonalLoop=1;jettySize=auto;html=1;exitX=1;exitY=0.25;exitDx=0;exitDy=0;entryX=0;entryY=0.5;entryDx=0;entryDy=0;endArrow=none;endFill=0;" parent="1" source="0lMx6nH-BZG6Sv3tBxdw-129" target="0lMx6nH-BZG6Sv3tBxdw-139" edge="1">
                    <mxGeometry relative="1" as="geometry"/>
                </mxCell>
                <mxCell id="5" style="edgeStyle=orthogonalEdgeStyle;rounded=0;orthogonalLoop=1;jettySize=auto;html=1;exitX=0;exitY=0.5;exitDx=0;exitDy=0;entryX=1;entryY=0.75;entryDx=0;entryDy=0;endArrow=none;endFill=0;" parent="1" source="0lMx6nH-BZG6Sv3tBxdw-149" target="0lMx6nH-BZG6Sv3tBxdw-129" edge="1">
                    <mxGeometry relative="1" as="geometry"/>
                </mxCell>
                <mxCell id="0lMx6nH-BZG6Sv3tBxdw-149" value="Consumption" style="ellipse;whiteSpace=wrap;html=1;fillColor=#2a2a2a;" parent="1" vertex="1">
                    <mxGeometry x="869.13" y="905" width="97.74" height="63" as="geometry"/>
                </mxCell>
                <mxCell id="0lMx6nH-BZG6Sv3tBxdw-150" value="" style="group" parent="1" vertex="1" connectable="0">
                    <mxGeometry x="256" y="871" width="128" height="70" as="geometry"/>
                </mxCell>
                <mxCell id="0lMx6nH-BZG6Sv3tBxdw-151" value="" style="rounded=0;whiteSpace=wrap;html=1;fillColor=none;" parent="0lMx6nH-BZG6Sv3tBxdw-150" vertex="1">
                    <mxGeometry width="128" height="70" as="geometry"/>
                </mxCell>
                <mxCell id="0lMx6nH-BZG6Sv3tBxdw-152" value="Weather" style="rounded=0;whiteSpace=wrap;html=1;" parent="0lMx6nH-BZG6Sv3tBxdw-150" vertex="1">
                    <mxGeometry x="11" y="9" width="106" height="51" as="geometry"/>
                </mxCell>
                <mxCell id="0lMx6nH-BZG6Sv3tBxdw-153" value="Temperature" style="ellipse;whiteSpace=wrap;html=1;rounded=0;" parent="1" vertex="1">
                    <mxGeometry x="223.5" y="983.5" width="87.5" height="48.5" as="geometry"/>
                </mxCell>
                <mxCell id="0lMx6nH-BZG6Sv3tBxdw-154" value="" style="edgeStyle=orthogonalEdgeStyle;rounded=0;orthogonalLoop=1;jettySize=auto;html=1;endArrow=none;endFill=0;exitX=0.25;exitY=1;exitDx=0;exitDy=0;" parent="1" source="0lMx6nH-BZG6Sv3tBxdw-151" target="0lMx6nH-BZG6Sv3tBxdw-153" edge="1">
                    <mxGeometry relative="1" as="geometry">
                        <mxPoint x="355" y="983" as="sourcePoint"/>
                    </mxGeometry>
                </mxCell>
                <mxCell id="0lMx6nH-BZG6Sv3tBxdw-155" value="&lt;u&gt;Year&lt;/u&gt;" style="ellipse;whiteSpace=wrap;html=1;rounded=0;" parent="1" vertex="1">
                    <mxGeometry x="122" y="881.75" width="87.5" height="48.5" as="geometry"/>
                </mxCell>
                <mxCell id="0lMx6nH-BZG6Sv3tBxdw-156" value="" style="edgeStyle=orthogonalEdgeStyle;rounded=0;orthogonalLoop=1;jettySize=auto;html=1;endArrow=none;endFill=0;exitX=0;exitY=0.5;exitDx=0;exitDy=0;" parent="1" source="0lMx6nH-BZG6Sv3tBxdw-151" target="0lMx6nH-BZG6Sv3tBxdw-155" edge="1">
                    <mxGeometry relative="1" as="geometry">
                        <mxPoint x="212.75" y="907" as="sourcePoint"/>
                    </mxGeometry>
                </mxCell>
                <mxCell id="0lMx6nH-BZG6Sv3tBxdw-157" value="Rainfall (PRCP)" style="ellipse;whiteSpace=wrap;html=1;rounded=0;" parent="1" vertex="1">
                    <mxGeometry x="321.25" y="983.5" width="111.75" height="48.5" as="geometry"/>
                </mxCell>
                <mxCell id="0lMx6nH-BZG6Sv3tBxdw-158" value="" style="edgeStyle=orthogonalEdgeStyle;rounded=0;orthogonalLoop=1;jettySize=auto;html=1;endArrow=none;endFill=0;exitX=0.75;exitY=1;exitDx=0;exitDy=0;" parent="1" source="0lMx6nH-BZG6Sv3tBxdw-151" target="0lMx6nH-BZG6Sv3tBxdw-157" edge="1">
                    <mxGeometry relative="1" as="geometry">
                        <mxPoint x="352.25" y="963" as="sourcePoint"/>
                    </mxGeometry>
                </mxCell>
                <mxCell id="0lMx6nH-BZG6Sv3tBxdw-159" value="" style="shape=link;html=1;rounded=0;endArrow=none;endFill=0;strokeColor=#000000;entryX=0.5;entryY=0;entryDx=0;entryDy=0;exitX=0;exitY=1;exitDx=0;exitDy=0;exitPerimeter=0;" parent="1" source="0lMx6nH-BZG6Sv3tBxdw-162" target="0lMx6nH-BZG6Sv3tBxdw-151" edge="1">
                    <mxGeometry relative="1" as="geometry">
                        <mxPoint x="489.19000000000005" y="704" as="sourcePoint"/>
                        <mxPoint x="421.75" y="882.1700000000001" as="targetPoint"/>
                    </mxGeometry>
                </mxCell>
                <mxCell id="0lMx6nH-BZG6Sv3tBxdw-161" value="" style="group" parent="1" vertex="1" connectable="0">
                    <mxGeometry x="277.99811892038275" y="686.0031189203828" width="91.56188107961731" height="94.9968810796172" as="geometry"/>
                </mxCell>
                <mxCell id="0lMx6nH-BZG6Sv3tBxdw-162" value="" style="verticalLabelPosition=bottom;verticalAlign=top;html=1;shape=mxgraph.basic.frame;dx=10;rotation=-45;" parent="0lMx6nH-BZG6Sv3tBxdw-161" vertex="1">
                    <mxGeometry x="11.411881079617274" y="12.506881079617187" width="58.84" height="56.65" as="geometry"/>
                </mxCell>
                <mxCell id="0lMx6nH-BZG6Sv3tBxdw-163" value="Has" style="text;html=1;align=center;verticalAlign=middle;resizable=0;points=[];autosize=1;" parent="0lMx6nH-BZG6Sv3tBxdw-161" vertex="1">
                    <mxGeometry x="20.831881079617233" y="30.826881079617124" width="40" height="20" as="geometry"/>
                </mxCell>
                <mxCell id="0lMx6nH-BZG6Sv3tBxdw-160" value="1..1" style="text;html=1;strokeColor=none;fillColor=none;align=center;verticalAlign=middle;whiteSpace=wrap;rounded=0;fontSize=15;" parent="0lMx6nH-BZG6Sv3tBxdw-161" vertex="1">
                    <mxGeometry x="51.56188107961731" y="74.9968810796172" width="40" height="20" as="geometry"/>
                </mxCell>
                <mxCell id="0lMx6nH-BZG6Sv3tBxdw-164" value="0..1" style="text;html=1;strokeColor=none;fillColor=none;align=center;verticalAlign=middle;whiteSpace=wrap;rounded=0;fontSize=15;" parent="1" vertex="1">
                    <mxGeometry x="362" y="649" width="40" height="20" as="geometry"/>
                </mxCell>
                <mxCell id="0lMx6nH-BZG6Sv3tBxdw-165" style="edgeStyle=orthogonalEdgeStyle;rounded=0;orthogonalLoop=1;jettySize=auto;html=1;exitX=1;exitY=0;exitDx=0;exitDy=0;exitPerimeter=0;endArrow=none;endFill=0;entryX=0.25;entryY=1;entryDx=0;entryDy=0;" parent="1" source="0lMx6nH-BZG6Sv3tBxdw-162" target="0lMx6nH-BZG6Sv3tBxdw-47" edge="1">
                    <mxGeometry relative="1" as="geometry">
                        <mxPoint x="361.25" y="721" as="targetPoint"/>
                    </mxGeometry>
                </mxCell>
                <mxCell id="4" value="" style="edgeStyle=orthogonalEdgeStyle;rounded=0;orthogonalLoop=1;jettySize=auto;html=1;entryX=0;entryY=0.75;entryDx=0;entryDy=0;endArrow=none;endFill=0;" parent="1" source="3" target="0lMx6nH-BZG6Sv3tBxdw-151" edge="1">
                    <mxGeometry relative="1" as="geometry"/>
                </mxCell>
                <mxCell id="3" value="&lt;u&gt;Month&lt;/u&gt;" style="ellipse;whiteSpace=wrap;html=1;rounded=0;" parent="1" vertex="1">
                    <mxGeometry x="122" y="950" width="87.5" height="48.5" as="geometry"/>
                </mxCell>
                <mxCell id="6" value="" style="group" parent="1" vertex="1" connectable="0">
                    <mxGeometry x="1231" y="803.33" width="128" height="70" as="geometry"/>
                </mxCell>
                <mxCell id="7" value="" style="rounded=0;whiteSpace=wrap;html=1;fillColor=none;" parent="6" vertex="1">
                    <mxGeometry width="128" height="70" as="geometry"/>
                </mxCell>
                <mxCell id="8" value="Commodity_Name" style="rounded=0;whiteSpace=wrap;html=1;" parent="6" vertex="1">
                    <mxGeometry x="11" y="9" width="106" height="51" as="geometry"/>
                </mxCell>
                <mxCell id="11" style="edgeStyle=orthogonalEdgeStyle;rounded=0;orthogonalLoop=1;jettySize=auto;html=1;exitX=0.5;exitY=1;exitDx=0;exitDy=0;entryX=0.5;entryY=0;entryDx=0;entryDy=0;endArrow=none;endFill=0;" parent="1" source="9" target="7" edge="1">
                    <mxGeometry relative="1" as="geometry"/>
                </mxCell>
                <mxCell id="9" value="code" style="ellipse;whiteSpace=wrap;html=1;" parent="1" vertex="1">
                    <mxGeometry x="1237.13" y="720" width="121.87" height="50" as="geometry"/>
                </mxCell>
                <mxCell id="12" style="edgeStyle=orthogonalEdgeStyle;rounded=0;orthogonalLoop=1;jettySize=auto;html=1;exitX=0;exitY=0.5;exitDx=0;exitDy=0;entryX=1;entryY=0.5;entryDx=0;entryDy=0;endArrow=none;endFill=0;" parent="1" source="10" target="7" edge="1">
                    <mxGeometry relative="1" as="geometry"/>
                </mxCell>
                <mxCell id="10" value="&lt;u&gt;name&lt;/u&gt;" style="ellipse;whiteSpace=wrap;html=1;" parent="1" vertex="1">
                    <mxGeometry x="1403.07" y="813.3299999999999" width="121.87" height="50" as="geometry"/>
                </mxCell>
                <mxCell id="13" value="" style="group" parent="1" vertex="1" connectable="0">
                    <mxGeometry x="1227" y="996.66" width="128" height="70" as="geometry"/>
                </mxCell>
                <mxCell id="14" value="" style="rounded=0;whiteSpace=wrap;html=1;fillColor=none;" parent="13" vertex="1">
                    <mxGeometry width="128" height="70" as="geometry"/>
                </mxCell>
                <mxCell id="15" value="Commodity_Group" style="rounded=0;whiteSpace=wrap;html=1;" parent="13" vertex="1">
                    <mxGeometry x="11" y="9" width="106" height="51" as="geometry"/>
                </mxCell>
                <mxCell id="16" style="edgeStyle=orthogonalEdgeStyle;rounded=0;orthogonalLoop=1;jettySize=auto;html=1;exitX=0.5;exitY=1;exitDx=0;exitDy=0;entryX=0.5;entryY=0;entryDx=0;entryDy=0;endArrow=none;endFill=0;" parent="1" source="17" target="14" edge="1">
                    <mxGeometry relative="1" as="geometry"/>
                </mxCell>
                <mxCell id="17" value="code" style="ellipse;whiteSpace=wrap;html=1;" parent="1" vertex="1">
                    <mxGeometry x="1233.13" y="913.33" width="121.87" height="50" as="geometry"/>
                </mxCell>
                <mxCell id="18" style="edgeStyle=orthogonalEdgeStyle;rounded=0;orthogonalLoop=1;jettySize=auto;html=1;exitX=0;exitY=0.5;exitDx=0;exitDy=0;entryX=1;entryY=0.5;entryDx=0;entryDy=0;endArrow=none;endFill=0;" parent="1" source="19" target="14" edge="1">
                    <mxGeometry relative="1" as="geometry"/>
                </mxCell>
                <mxCell id="19" value="&lt;u&gt;group_name&lt;/u&gt;" style="ellipse;whiteSpace=wrap;html=1;" parent="1" vertex="1">
                    <mxGeometry x="1399.07" y="1006.66" width="121.87" height="50" as="geometry"/>
                </mxCell>
                <mxCell id="25" style="edgeStyle=orthogonalEdgeStyle;rounded=0;orthogonalLoop=1;jettySize=auto;html=1;exitX=1;exitY=0.5;exitDx=0;exitDy=0;entryX=0.311;entryY=0.038;entryDx=0;entryDy=0;entryPerimeter=0;endArrow=none;endFill=0;" edge="1" parent="1" source="24" target="0lMx6nH-BZG6Sv3tBxdw-47">
                    <mxGeometry relative="1" as="geometry"/>
                </mxCell>
                <mxCell id="24" value="is_country" style="ellipse;whiteSpace=wrap;html=1;" vertex="1" parent="1">
                    <mxGeometry x="205" y="438.5" width="86" height="57" as="geometry"/>
                </mxCell>
                <mxCell id="26" value="" style="group" vertex="1" connectable="0" parent="1">
                    <mxGeometry x="1084.9981189203827" y="797.0031189203828" width="91.56188107961731" height="94.9968810796172" as="geometry"/>
                </mxCell>
                <mxCell id="27" value="" style="verticalLabelPosition=bottom;verticalAlign=top;html=1;shape=mxgraph.basic.frame;dx=10;rotation=-45;" vertex="1" parent="26">
                    <mxGeometry x="11.411881079617274" y="12.506881079617187" width="58.84" height="56.65" as="geometry"/>
                </mxCell>
                <mxCell id="28" value="Has" style="text;html=1;align=center;verticalAlign=middle;resizable=0;points=[];autosize=1;" vertex="1" parent="26">
                    <mxGeometry x="20.831881079617233" y="30.826881079617124" width="40" height="20" as="geometry"/>
                </mxCell>
                <mxCell id="31" style="edgeStyle=orthogonalEdgeStyle;rounded=0;orthogonalLoop=1;jettySize=auto;html=1;exitX=0.75;exitY=1;exitDx=0;exitDy=0;entryX=1;entryY=0;entryDx=0;entryDy=0;entryPerimeter=0;endArrow=none;endFill=0;" edge="1" parent="1" source="FX2rXBRW-lGvqEh_019G-5" target="27">
                    <mxGeometry relative="1" as="geometry">
                        <Array as="points">
                            <mxPoint x="1043" y="562"/>
                            <mxPoint x="1060" y="562"/>
                            <mxPoint x="1060" y="582"/>
                            <mxPoint x="1125" y="582"/>
                            <mxPoint x="1125" y="797"/>
                        </Array>
                    </mxGeometry>
                </mxCell>
                <mxCell id="32" style="edgeStyle=orthogonalEdgeStyle;rounded=0;orthogonalLoop=1;jettySize=auto;html=1;exitX=1;exitY=1;exitDx=0;exitDy=0;exitPerimeter=0;entryX=0;entryY=0.5;entryDx=0;entryDy=0;endArrow=none;endFill=0;" edge="1" parent="1" source="27" target="7">
                    <mxGeometry relative="1" as="geometry"/>
                </mxCell>
                <mxCell id="29" value="1..1" style="text;html=1;strokeColor=none;fillColor=none;align=center;verticalAlign=middle;whiteSpace=wrap;rounded=0;fontSize=15;" vertex="1" parent="1">
                    <mxGeometry x="1129" y="696" width="40" height="20" as="geometry"/>
                </mxCell>
                <mxCell id="34" value="" style="group" vertex="1" connectable="0" parent="1">
                    <mxGeometry x="1030.9981189203827" y="921.0031189203828" width="91.56188107961731" height="94.9968810796172" as="geometry"/>
                </mxCell>
                <mxCell id="35" value="" style="verticalLabelPosition=bottom;verticalAlign=top;html=1;shape=mxgraph.basic.frame;dx=10;rotation=-45;" vertex="1" parent="34">
                    <mxGeometry x="11.411881079617274" y="12.506881079617187" width="58.84" height="56.65" as="geometry"/>
                </mxCell>
                <mxCell id="36" value="Has" style="text;html=1;align=center;verticalAlign=middle;resizable=0;points=[];autosize=1;" vertex="1" parent="34">
                    <mxGeometry x="20.831881079617233" y="30.826881079617124" width="40" height="20" as="geometry"/>
                </mxCell>
                <mxCell id="37" style="edgeStyle=orthogonalEdgeStyle;rounded=0;orthogonalLoop=1;jettySize=auto;html=1;exitX=0.75;exitY=1;exitDx=0;exitDy=0;entryX=1;entryY=0;entryDx=-10;entryDy=10;entryPerimeter=0;endArrow=none;endFill=0;" edge="1" parent="1" source="FX2rXBRW-lGvqEh_019G-5" target="35">
                    <mxGeometry relative="1" as="geometry">
                        <Array as="points">
                            <mxPoint x="1043" y="632"/>
                            <mxPoint x="1073" y="632"/>
                        </Array>
                    </mxGeometry>
                </mxCell>
                <mxCell id="39" style="edgeStyle=orthogonalEdgeStyle;rounded=0;orthogonalLoop=1;jettySize=auto;html=1;exitX=1;exitY=1;exitDx=0;exitDy=0;exitPerimeter=0;entryX=-0.008;entryY=0.605;entryDx=0;entryDy=0;entryPerimeter=0;endArrow=none;endFill=0;" edge="1" parent="1" source="35" target="14">
                    <mxGeometry relative="1" as="geometry"/>
                </mxCell>
                <mxCell id="40" value="1..1" style="text;html=1;strokeColor=none;fillColor=none;align=center;verticalAlign=middle;whiteSpace=wrap;rounded=0;fontSize=15;" vertex="1" parent="1">
                    <mxGeometry x="1176.56" y="808" width="40" height="20" as="geometry"/>
                </mxCell>
                <mxCell id="41" value="1..1" style="text;html=1;strokeColor=none;fillColor=none;align=center;verticalAlign=middle;whiteSpace=wrap;rounded=0;fontSize=15;" vertex="1" parent="1">
                    <mxGeometry x="1031" y="788" width="40" height="20" as="geometry"/>
                </mxCell>
                <mxCell id="42" value="1..*" style="text;html=1;strokeColor=none;fillColor=none;align=center;verticalAlign=middle;whiteSpace=wrap;rounded=0;fontSize=15;" vertex="1" parent="1">
                    <mxGeometry x="1169" y="996" width="40" height="20" as="geometry"/>
                </mxCell>
            </root>
        </mxGraphModel>
    </diagram>
</mxfile>